<?xml version="1.0" encoding="utf-8"?>
<!-- Generator: Adobe Illustrator 21.0.2, SVG Export Plug-In . SVG Version: 6.00 Build 0)  -->
<svg version="1.1" id="Calque_2" xmlns="http://www.w3.org/2000/svg" xmlns:xlink="http://www.w3.org/1999/xlink" x="0px" y="0px"
	 width="25.2px" height="25.8px" viewBox="0 0 25.2 25.8" style="enable-background:new 0 0 25.2 25.8;" xml:space="preserve">
<style type="text/css">
	.st0{display:none;opacity:0.5;fill:url(#SVGID_1_);enable-background:new    ;}
	.st1{fill:#A37E2B;}
	.st2{fill:#FFFFFF;}
	.st3{opacity:0.7;fill:#FFFFFF;}
	.st4{fill:none;}
</style>
<g>
	
		<radialGradient id="SVGID_1_" cx="-2513.239" cy="949.244" r="6.697585e-02" gradientTransform="matrix(154.8199 0 0 31.547 389112.2188 -29917.8887)" gradientUnits="userSpaceOnUse">
		<stop  offset="0" style="stop-color:#010100;stop-opacity:0.5"/>
		<stop  offset="1" style="stop-color:#010100;stop-opacity:0"/>
	</radialGradient>
	<ellipse class="st0" cx="12.9" cy="28" rx="10.3" ry="2.1"/>
	<circle class="st1" cx="12.6" cy="12.8" r="12.3"/>
	<path class="st2" d="M12.6,2.5C6.9,2.5,2.3,7.1,2.3,12.8s4.6,10.3,10.3,10.3s10.3-4.6,10.3-10.3S18.3,2.5,12.6,2.5z"/>
	<path class="st3" d="M12.6,2.5C6.9,2.5,2.3,7.1,2.3,12.8s4.6,10.3,10.3,10.3s10.3-4.6,10.3-10.3S18.3,2.5,12.6,2.5z"/>
	<path class="st1" d="M7.8,10.7c0.1,0,0.1,0,0.2,0l2,6.8h0c0.2,0.8,1.3,1.3,2.7,1.3c1.3,0,2.4-0.6,2.7-1.3h0l2-6.8c0,0,0.1,0,0.2,0
		c0.4,0,0.7-0.3,0.7-0.7c0-0.4-0.3-0.7-0.7-0.7c-0.4,0-0.7,0.3-0.7,0.7c0,0.3,0.2,0.5,0.4,0.6l-2.3,5l0.4-6.7c0,0,0,0,0,0
		c0.4,0,0.7-0.3,0.7-0.7c0-0.4-0.3-0.7-0.7-0.7c-0.4,0-0.7,0.3-0.7,0.7c0,0.3,0.2,0.6,0.5,0.7l-1.5,6.5l-0.7-7.2
		c0.3-0.1,0.6-0.3,0.6-0.7c0-0.4-0.3-0.7-0.7-0.7c-0.4,0-0.7,0.3-0.7,0.7c0,0.4,0.3,0.7,0.6,0.7l-0.7,7.2l-1.5-6.5
		c0.3-0.1,0.5-0.4,0.5-0.7c0-0.4-0.3-0.7-0.7-0.7c-0.4,0-0.7,0.3-0.7,0.7c0,0.4,0.3,0.7,0.7,0.7c0,0,0,0,0,0l0.4,6.7l-2.3-5
		c0.2-0.1,0.4-0.4,0.4-0.6c0-0.4-0.3-0.7-0.7-0.7c-0.4,0-0.7,0.3-0.7,0.7C7.1,10.4,7.4,10.7,7.8,10.7z M12.6,16.9
		c1.2,0,2.2,0.3,2.2,0.7c0,0.4-1,0.7-2.2,0.7c-1.2,0-2.2-0.3-2.2-0.7C10.4,17.2,11.4,16.9,12.6,16.9z"/>
	<path class="st4" d="M12.6,2.5C6.9,2.5,2.3,7.1,2.3,12.8s4.6,10.3,10.3,10.3s10.3-4.6,10.3-10.3S18.3,2.5,12.6,2.5z"/>
	<path class="st4" d="M12.6,2.5C6.9,2.5,2.3,7.1,2.3,12.8s4.6,10.3,10.3,10.3s10.3-4.6,10.3-10.3S18.3,2.5,12.6,2.5z"/>
	<path class="st4" d="M12.6,2.5C6.9,2.5,2.3,7.1,2.3,12.8s4.6,10.3,10.3,10.3s10.3-4.6,10.3-10.3S18.3,2.5,12.6,2.5z"/>
</g>
</svg>
